<?xml version="1.0" standalone="no"?>
<!DOCTYPE svg PUBLIC "-//W3C//DTD SVG 20010904//EN"
 "http://www.w3.org/TR/2001/REC-SVG-20010904/DTD/svg10.dtd">
<svg version="1.0" xmlns="http://www.w3.org/2000/svg"
 width="107.000000pt" height="45.000000pt" viewBox="0 0 107.000000 45.000000"
 preserveAspectRatio="xMidYMid meet">

<g transform="translate(0.000000,45.000000) scale(0.100000,-0.100000)"
fill="#FF2D20" stroke="none">
<path d="M431 439 c-28 -9 -32 -14 -27 -32 3 -12 6 -25 6 -29 0 -4 27 -5 59
-2 53 6 60 5 70 -14 9 -18 8 -25 -9 -42 -11 -11 -33 -20 -50 -20 -27 0 -30 -3
-30 -30 0 -27 3 -30 33 -30 59 0 91 -46 57 -80 -22 -22 -64 -26 -106 -10 -32
12 -32 12 -40 -27 -6 -29 -4 -31 41 -42 28 -7 67 -9 94 -5 96 15 146 113 85
169 -15 14 -31 25 -37 25 -5 0 5 13 22 29 70 66 14 153 -97 150 -20 0 -52 -5
-71 -10z"/>
<path d="M33 396 c-28 -24 -28 -24 -31 -166 -4 -158 4 -192 49 -215 38 -20
583 -22 577 -2 -4 9 -74 13 -287 17 -265 5 -284 6 -297 24 -10 15 -14 55 -14
158 0 185 -8 178 186 178 112 0 145 3 142 13 -4 9 -45 13 -150 15 -142 2 -147
2 -175 -22z"/>
<path d="M91 243 c11 -38 24 -85 30 -105 9 -34 13 -38 43 -38 32 0 33 2 46 55
7 31 16 58 20 60 3 2 12 -23 19 -56 13 -57 15 -59 46 -59 32 0 32 1 60 93 15
50 30 98 33 105 3 8 -7 12 -32 12 -30 0 -36 -4 -37 -22 0 -13 -6 -45 -13 -73
l-12 -50 -18 73 c-17 68 -20 72 -46 72 -25 0 -28 -4 -40 -62 -17 -82 -26 -90
-34 -31 -14 90 -15 93 -51 93 l-34 0 20 -67z"/>
<path d="M650 302 c0 -4 16 -47 35 -95 19 -48 35 -94 35 -102 0 -8 -13 -23
-29 -33 -26 -16 -28 -20 -17 -44 11 -26 12 -27 41 -13 17 9 40 30 53 49 21 31
92 213 92 236 0 6 -15 10 -34 10 -33 0 -33 -1 -46 -60 -7 -33 -16 -62 -19 -65
-4 -2 -15 25 -25 61 -18 62 -19 64 -52 64 -19 0 -34 -4 -34 -8z"/>
<path d="M890 285 c0 -23 4 -25 45 -25 l46 0 -51 -61 c-27 -33 -50 -69 -50
-80 0 -17 7 -19 90 -19 89 0 90 0 90 25 0 23 -4 25 -45 25 -25 0 -45 3 -45 6
0 3 20 30 45 61 25 30 45 63 45 74 0 17 -8 19 -85 19 -84 0 -85 0 -85 -25z"/>
</g>
</svg>
